<?xml version="1.0" encoding="utf-8"?>
<!-- Generator: Adobe Illustrator 27.5.0, SVG Export Plug-In . SVG Version: 6.00 Build 0)  -->
<svg version="1.1" xmlns="http://www.w3.org/2000/svg" xmlns:xlink="http://www.w3.org/1999/xlink" x="0px" y="0px"
	 viewBox="0 0 500 500" style="enable-background:new 0 0 500 500;" xml:space="preserve">
<g id="BACKGROUND">
</g>
<g id="OBJECTS">
	<g>
		<g>
			<g style="opacity:0.6;">
				<path style="fill:#FFF1E3;" d="M428.339,90.46c-13.704-25.53-37.063-44.843-66.256-50.28
					c-30.986-5.771-73.133,25.834-102.558,31.742c-54.185,10.878-142.503-8.068-172.039,53.132
					c-20.867,43.237-11.345,97.791-1.557,142.687c7.439,34.119-48.305,115.895-45.879,150.745
					c2.468,35.445,51.788,45.679,126.871,37.953c24.21-2.491,46.738-7.741,68.996-14.45c38.964-11.745,181.651,1.352,219.033-39.75
					c25.216-27.727,12.521-65.571-5.904-93.994C403.25,237.597,444.056,119.741,428.339,90.46z"/>
			</g>
			<g>
				<path style="opacity:0.6;fill:#FFF1E3;" d="M441.939,180.799c-1.215-1.272-2.47-2.517-3.763-3.732
					c-9.936-9.333-21.816-16.552-34.611-21.235c-13.136-4.808-27.233-4.103-40.109-9.009
					c-27.928-10.642-30.778-44.733-46.656-66.271c-28.447-38.59-93.141-49.931-135.184-16.539
					c-30.903,24.544-23.56,162.899-89.484,179.911C-4.202,268.784,23.464,406.214,60.926,425.66
					c18.253,9.475,95.431,42.395,176.882-34.812c26.551-25.168,61.594-38.918,99.269-31.883
					c40.066,7.482,79.93,18.356,107.451-20.42c15.397-21.694,24.111-52.208,25.495-78.641
					C471.55,230.765,462.131,201.936,441.939,180.799z"/>
			</g>
		</g>
		<g>
			<path style="opacity:0.46;fill:#FFCE7D;" d="M349.06,92.704c0.463-3.655-0.584-17.25,0.868-20.537
				c1.916-4.119,5.082-7.488,9.262-9.766c14.758-7.95,19.096-3.067,25.54-10.298c25.945-28.567,44.266,0.175,68.837-0.34
				c0.096,0.054-6.594,21.262-11.145,22.338c-3.327,0.844-7.199,0.15-11.024-1.478c-1.93-0.822-3.777-0.943-5.373,0.035
				c-3.215,1.976-2.879,5.052-1.023,8.385c2.868,5.148,2.679,10.705-0.635,13.867c-7.462,7.102-17.035,7.348-26.904,2.128
				c-13.224-5.707-13.441,52.952-65.726,15.072c0.39,0.025-15.697-21.046,7.927-36.783C339.21,77.364,348.837,96.107,349.06,92.704z
				 M367.602,97.31c0.113,1.481,1.718,2.811,3.252,2.939c1.862,0.154,3.511,0.506,5.284,0.893c1.631,0.356,3.001-0.119,3.365-1.616
				c0.307-1.256-0.873-3.194-2.421-3.536c-2.275-0.504-4.578-1.027-6.861-1.215C368.564,94.637,367.49,95.842,367.602,97.31z
				 M399.122,56.552c-1.268,3.075,4.459,6.81,5.789,3.764c0.828-1.911,1.617-3.881,3.112-5.301c2.392-2.253-2.659-7.247-5.026-4.937
				C401.167,51.861,400.112,54.167,399.122,56.552z"/>
			<path style="opacity:0.46;fill:#FFCE7D;" d="M195.275,303.302c1.295-5.729,10.265-25.529,9.879-31.244
				c-0.629-7.215-3.539-13.986-8.563-19.675c-17.785-19.944-26.942-14.989-32.662-29.331
				c-23.325-56.926-66.42-23.832-102.956-37.978c-0.173,0.028-1.693,35.446,4.54,39.535c4.526,3.076,10.705,4.143,17.321,3.786
				c3.339-0.182,6.172,0.644,8.032,2.978c3.742,4.711,1.564,9.136-3.032,13.121c-7.1,6.152-9.841,14.582-6.597,21.123
				c7.315,14.703,21.524,20.282,39.153,17.833c22.92-1.352-8.684,86.656,90.275,58.358c-0.598-0.175,34.975-22.989,8.144-59.427
				C218.383,285.679,193.757,308.522,195.275,303.302z M164.985,300.109c-0.976,2.157-4.103,3.276-6.472,2.633
				c-2.875-0.783-5.536-1.153-8.404-1.539c-2.637-0.354-4.431-1.812-4.163-4.253c0.223-2.048,3.047-4.31,5.552-3.981
				c3.683,0.483,7.418,0.953,10.941,1.913C164.999,295.581,165.951,297.971,164.985,300.109z M139.943,221.884
				c0.225,5.297-10.388,7.777-10.723,2.489c-0.201-3.314-0.311-6.696-1.777-9.637c-2.358-4.678,7.928-9.411,10.217-4.661
				C139.433,213.743,139.758,217.772,139.943,221.884z"/>
			<g>
				
					<path style="fill:none;stroke:#FFFFFF;stroke-width:1.8093;stroke-linecap:round;stroke-linejoin:round;stroke-miterlimit:10;" d="
					M245.655,286.504c0,0-9.28-125.276-111.356-184.82"/>
				<path style="fill:#FFCE7D;" d="M156.785,116.925c0,0,6.609-50.835-11.614-55.985S130.765,86.947,156.785,116.925z"/>
				<path style="fill:#FFCE7D;" d="M136.316,102.882c0,0-19.056-51.363-39.006-38.17S119.334,104.371,136.316,102.882z"/>
				<path style="fill:#FFCE7D;" d="M181.824,140.135c0,0,17.264-48.716,0-55.473C164.56,77.904,162.728,116.045,181.824,140.135z"/>
				
					<path style="fill:none;stroke:#FFFFFF;stroke-width:1.8093;stroke-linecap:round;stroke-linejoin:round;stroke-miterlimit:10;" d="
					M181.824,140.135c0,0-5.979-27.992-4.832-48.068"/>
				<path style="fill:#FFCE7D;" d="M161.557,120.779c0,0-52.955,22.227-55.044-1.806
					C104.773,98.963,161.557,120.779,161.557,120.779z"/>
				<path style="fill:#FFCE7D;" d="M220.636,198.462c0,0-57.422,0.969-50.436-22.121
					C176.016,157.116,220.636,198.462,220.636,198.462z"/>
				<path style="fill:#FFCE7D;" d="M202.532,166.608c0,0-56.615-5.295-50.2-23.855C159.991,120.592,195.174,154.875,202.532,166.608
					z"/>
				<path style="fill:#FFCE7D;" d="M221.395,200.32c0,0-5.577-53.618,13.507-51.087C253.136,151.651,243.48,187.006,221.395,200.32z
					"/>
				<path style="fill:#FFCE7D;" d="M206.645,172.983c0,0,34.971-47.11,10.733-54.036
					C197.495,113.267,201.877,154.307,206.645,172.983z"/>
				
					<path style="fill:none;stroke:#FFFFFF;stroke-width:1.8093;stroke-linecap:round;stroke-linejoin:round;stroke-miterlimit:10;" d="
					M156.785,116.925c0,0-3.833-30.37-14.1-46.097"/>
				
					<path style="fill:none;stroke:#FFFFFF;stroke-width:1.8093;stroke-linecap:round;stroke-linejoin:round;stroke-miterlimit:10;" d="
					M104.24,71.92c0,0,11.673,7.799,31.612,30.679"/>
				
					<path style="fill:none;stroke:#FFFFFF;stroke-width:1.8093;stroke-linecap:round;stroke-linejoin:round;stroke-miterlimit:10;" d="
					M161.557,120.779c0,0-30.818-3.711-44.182-2.366"/>
				
					<path style="fill:none;stroke:#FFFFFF;stroke-width:1.8093;stroke-linecap:round;stroke-linejoin:round;stroke-miterlimit:10;" d="
					M202.532,166.608c0,0-19.799-15.642-36.086-20.91"/>
				
					<path style="fill:none;stroke:#FFFFFF;stroke-width:1.8093;stroke-linecap:round;stroke-linejoin:round;stroke-miterlimit:10;" d="
					M206.645,172.983c0,0,2.618-29.322,7.624-42.84"/>
				
					<path style="fill:none;stroke:#FFFFFF;stroke-width:1.8093;stroke-linecap:round;stroke-linejoin:round;stroke-miterlimit:10;" d="
					M221.395,200.32c0,0,5.646-29.82,11.16-41.723"/>
				
					<path style="fill:none;stroke:#FFFFFF;stroke-width:1.8093;stroke-linecap:round;stroke-linejoin:round;stroke-miterlimit:10;" d="
					M220.636,198.462c0,0-23.286-15.643-40.408-18.148"/>
			</g>
			<g>
				
					<path style="fill:none;stroke:#FFFFFF;stroke-width:1.7344;stroke-linecap:round;stroke-linejoin:round;stroke-miterlimit:10;" d="
					M275.89,452.974c0,0-72.573-96.086-185.736-91.005"/>
				<path style="fill:#FFCE7D;" d="M116.186,362.561c0,0-21.092-44.381-38.447-39.06C60.385,328.822,79.649,351.935,116.186,362.561
					z"/>
				<path style="fill:#FFCE7D;" d="M92.402,361.886c0,0-42.04-31.47-51.254-10.477C31.934,372.403,79.497,371.91,92.402,361.886z"/>
				<path style="fill:#FFCE7D;" d="M148.416,368.245c0,0-11.409-48.211-28.826-44.683
					C102.172,327.09,120.516,358.764,148.416,368.245z"/>
				
					<path style="fill:none;stroke:#FFFFFF;stroke-width:1.7344;stroke-linecap:round;stroke-linejoin:round;stroke-miterlimit:10;" d="
					M148.416,368.245c0,0-19.361-19.44-28.87-36.207"/>
				<path style="fill:#FFCE7D;" d="M122.033,363.185c0,0-31.104,45.421-45.276,27.149
					C64.957,375.121,122.033,363.185,122.033,363.185z"/>
				<path style="fill:#FFCE7D;" d="M209.987,395.058c0,0-45.749,30.619-52.121,8.391
					C152.562,384.941,209.987,395.058,209.987,395.058z"/>
				<path style="fill:#FFCE7D;" d="M178.852,378.808c0,0-48.354,25.154-52.831,6.871
					C120.675,363.849,166.828,373.181,178.852,378.808z"/>
				<path style="fill:#FFCE7D;" d="M211.564,396.16c0,0-32.354-40.29-15.667-48.169C211.841,340.464,222.435,373.96,211.564,396.16z
					"/>
				<path style="fill:#FFCE7D;" d="M185.478,381.806c0,0,3.689-56.119-19.434-49.102C147.077,338.46,171.932,369.24,185.478,381.806
					z"/>
				
					<path style="fill:none;stroke:#FFFFFF;stroke-width:1.7344;stroke-linecap:round;stroke-linejoin:round;stroke-miterlimit:10;" d="
					M116.186,362.561c0,0-18.869-22.471-35.311-29.804"/>
				
					<path style="fill:none;stroke:#FFFFFF;stroke-width:1.7344;stroke-linecap:round;stroke-linejoin:round;stroke-miterlimit:10;" d="
					M50.476,353.614c0,0,13.455,0.217,41.405,8.285"/>
				
					<path style="fill:none;stroke:#FFFFFF;stroke-width:1.7344;stroke-linecap:round;stroke-linejoin:round;stroke-miterlimit:10;" d="
					M122.033,363.185c0,0-26.752,13.025-36.818,21.053"/>
				
					<path style="fill:none;stroke:#FFFFFF;stroke-width:1.7344;stroke-linecap:round;stroke-linejoin:round;stroke-miterlimit:10;" d="
					M178.852,378.808c0,0-24.076-2.311-39.932,1.909"/>
				
					<path style="fill:none;stroke:#FFFFFF;stroke-width:1.7344;stroke-linecap:round;stroke-linejoin:round;stroke-miterlimit:10;" d="
					M185.478,381.806c0,0-13.128-24.979-16.12-38.469"/>
				
					<path style="fill:none;stroke:#FFFFFF;stroke-width:1.7344;stroke-linecap:round;stroke-linejoin:round;stroke-miterlimit:10;" d="
					M211.564,396.16c0,0-10.948-26.953-12.691-39.406"/>
				
					<path style="fill:none;stroke:#FFFFFF;stroke-width:1.7344;stroke-linecap:round;stroke-linejoin:round;stroke-miterlimit:10;" d="
					M209.987,395.058c0,0-26.885-0.5-41.979,6.379"/>
			</g>
			<g>
				
					<path style="fill:none;stroke:#FFFFFF;stroke-width:1.8093;stroke-linecap:round;stroke-linejoin:round;stroke-miterlimit:10;" d="
					M371.228,392.738c0,0-18.882-124.192,67.352-204.994"/>
				<path style="fill:#FFCE7D;" d="M420.058,207.615c0,0-17.775-48.083-1.159-57.165C435.515,141.367,438.74,172.59,420.058,207.615
					z"/>
				<path style="fill:#FFCE7D;" d="M436.881,189.362c0,0,7.126-54.319,29.515-45.906
					C488.785,151.87,453.767,187.028,436.881,189.362z"/>
				<path style="fill:#FFCE7D;" d="M400.823,235.823c0,0-27.69-43.641-12.367-54.077
					C403.78,171.309,414.068,208.082,400.823,235.823z"/>
				
					<path style="fill:none;stroke:#FFFFFF;stroke-width:1.8093;stroke-linecap:round;stroke-linejoin:round;stroke-miterlimit:10;" d="
					M400.823,235.823c0,0-0.412-28.62-6.006-47.935"/>
				<path style="fill:#FFCE7D;" d="M416.265,212.436c0,0,56.577,9.863,53.257-14.031
					C466.757,178.51,416.265,212.436,416.265,212.436z"/>
				<path style="fill:#FFCE7D;" d="M375.991,301.334c0,0,56.193-11.856,44.236-32.808
					C410.271,251.082,375.991,301.334,375.991,301.334z"/>
				<path style="fill:#FFCE7D;" d="M386.538,266.246c0,0,54.009-17.783,43.619-34.446
					C417.75,211.905,391.095,253.168,386.538,266.246z"/>
				<path style="fill:#FFCE7D;" d="M375.665,303.314c0,0-6.517-53.511-24.556-46.79
					C333.873,262.947,351.168,295.259,375.665,303.314z"/>
				<path style="fill:#FFCE7D;" d="M383.95,273.378c0,0-44.594-38.129-22.509-50.283
					C379.556,213.124,384.435,254.108,383.95,273.378z"/>
				
					<path style="fill:none;stroke:#FFFFFF;stroke-width:1.8093;stroke-linecap:round;stroke-linejoin:round;stroke-miterlimit:10;" d="
					M420.058,207.615c0,0-3.034-30.46,3.468-48.081"/>
				
					<path style="fill:none;stroke:#FFFFFF;stroke-width:1.8093;stroke-linecap:round;stroke-linejoin:round;stroke-miterlimit:10;" d="
					M461.247,152.029c0,0-9.641,10.205-23.977,36.954"/>
				
					<path style="fill:none;stroke:#FFFFFF;stroke-width:1.8093;stroke-linecap:round;stroke-linejoin:round;stroke-miterlimit:10;" d="
					M416.265,212.436c0,0,29.215-10.488,42.543-12.156"/>
				
					<path style="fill:none;stroke:#FFFFFF;stroke-width:1.8093;stroke-linecap:round;stroke-linejoin:round;stroke-miterlimit:10;" d="
					M386.538,266.246c0,0,15.813-19.662,30.517-28.428"/>
				
					<path style="fill:none;stroke:#FFFFFF;stroke-width:1.8093;stroke-linecap:round;stroke-linejoin:round;stroke-miterlimit:10;" d="
					M383.95,273.378c0,0-9.089-28-16.983-40.062"/>
				
					<path style="fill:none;stroke:#FFFFFF;stroke-width:1.8093;stroke-linecap:round;stroke-linejoin:round;stroke-miterlimit:10;" d="
					M375.665,303.314c0,0-12.151-27.811-20.18-38.185"/>
				
					<path style="fill:none;stroke:#FFFFFF;stroke-width:1.8093;stroke-linecap:round;stroke-linejoin:round;stroke-miterlimit:10;" d="
					M375.991,301.334c0,0,19.212-20.44,35.346-26.7"/>
			</g>
			<g>
				<path style="fill:#FFCE7D;" d="M404.667,352.321c-0.34-3.544-3.317-15.895-2.593-19.42c0.911-4.441,2.912-8.56,5.786-12.017
					c10.098-12.145,13.894-9.299,17.593-18.202c14.633-35.214,31.287-16.831,47.959-29.127c0,0-0.229,21.292-3.054,24.384
					c-2.104,2.304-4.94,3.529-7.947,3.866c-1.516,0.17-2.833,0.896-3.757,2.463c-1.861,3.157-0.998,5.699,1.045,7.753
					c3.145,3.162,4.328,8.018,2.718,12.298c-3.613,9.604-10.61,14.29-19.234,13.823c-11.8-0.64,3.526,55.168-49.197,37.779
					c0,0-16.729-15.428,0.44-36.97C394.193,341.076,404.985,355.635,404.667,352.321z M420.3,350.169
					c0.391,1.314,1.938,1.938,3.17,1.477c1.495-0.558,2.86-0.866,4.327-1.2c1.35-0.308,2.306-1.275,2.259-2.77
					c-0.039-1.254-1.365-2.544-2.633-2.263c-1.867,0.415-3.764,0.805-5.585,1.475C420.515,347.375,419.912,348.866,420.3,350.169z
					 M436.555,301.299c-0.422,3.273,4.358,4.346,4.783,1.076c0.265-2.04,0.499-4.116,1.325-5.987
					c1.311-2.967-3.04-5.402-4.361-2.417C437.276,296.288,436.881,298.77,436.555,301.299z"/>
				<path style="opacity:0.34;fill:#FF8C41;" d="M394.383,376.047c5.373-16.877,48.118-76.685,76.475-100.838
					c-15.8,8.915-31.528-5.921-45.405,27.473c-3.699,8.902-7.495,6.057-17.593,18.202c-2.874,3.457-4.875,7.576-5.786,12.017
					c-0.723,3.525,2.253,15.876,2.593,19.42c0.318,3.313-10.474-11.245-10.24-13.368c-17.169,21.542-0.44,36.97-0.44,36.97
					C394.122,375.967,394.249,376.004,394.383,376.047z M438.302,293.971c1.321-2.984,5.672-0.549,4.361,2.417
					c-0.826,1.871-1.06,3.947-1.325,5.987c-0.425,3.271-5.205,2.197-4.783-1.076C436.881,298.77,437.276,296.288,438.302,293.971z"
					/>
				
					<path style="fill:none;stroke:#FFFFFF;stroke-width:1.2749;stroke-linecap:round;stroke-linejoin:round;stroke-miterlimit:10;" d="
					M367.812,425.914c0.575-1.217,36.684-83.772,83.699-131.088"/>
				
					<path style="fill:none;stroke:#FFFFFF;stroke-width:1.2749;stroke-linecap:round;stroke-linejoin:round;stroke-miterlimit:10;" d="
					M433.458,315.254c0,0,12.399,3.36,20.439,1.488"/>
				
					<path style="fill:none;stroke:#FFFFFF;stroke-width:1.2749;stroke-linecap:round;stroke-linejoin:round;stroke-miterlimit:10;" d="
					M419.297,316.665c0,0,0.696,6.616,4.769,10.929"/>
				
					<path style="fill:none;stroke:#FFFFFF;stroke-width:1.2749;stroke-linecap:round;stroke-linejoin:round;stroke-miterlimit:10;" d="
					M420.689,360.728c0,0-9.13,4.705-19.654,1.869"/>
				
					<path style="fill:none;stroke:#FFFFFF;stroke-width:1.2749;stroke-linecap:round;stroke-linejoin:round;stroke-miterlimit:10;" d="
					M393.911,352.552c0,0-1.834,7.786,3.365,16.396"/>
			</g>
		</g>
		<g>
			<ellipse style="fill:#EBE5DB;" cx="248.564" cy="447.293" rx="187.877" ry="13.274"/>
			<g>
				<g>
					<g>
						<path style="fill:#D4856C;" d="M157.821,414.661c0.305,6.482,0.6,12.964,0.884,19.446c4.109,0.096,8.217,0.195,12.326,0.293
							c0.083-6.751,0.149-13.502,0.211-20.254C166.768,414.315,162.295,414.492,157.821,414.661z"/>
						<path style="fill:#F77943;" d="M107.194,225.888c8.494,14.767,15.478,30.481,23.184,45.521
							c5.033,23.952,13.402,42.524,16.459,67.765c3.119,25.759,5.854,55.093,9.696,81.469c5.56,0.643,11.102,0.419,16.663,0.642
							c2.603-29.941,2.572-70.264,4.589-103.73c-0.648-33.551-5.886-67.807-23.231-96.861
							C138.679,221.772,122.936,223.581,107.194,225.888z"/>
						<path style="fill:#C15F34;" d="M166.274,414.878c-3.51-4.008-4.602-10.077-5.199-15.17
							c-0.957-8.166-0.779-16.538-1.221-24.747c-1.04-19.313-2.748-38.612-6.18-57.66c-1.712-9.501-3.612-18.913-4.966-28.479
							c-1.29-9.113-2.335-18.375-4.52-27.33c-2.046-8.383-6.009-16.203-8.945-24.29c-1.679-4.626-2.449-9.76-4.221-14.393
							c-7.954,0.88-15.89,1.915-23.827,3.078c8.494,14.767,15.478,30.481,23.184,45.521c5.033,23.952,13.402,42.523,16.459,67.765
							c3.119,25.759,5.854,55.093,9.696,81.469c5.56,0.643,11.102,0.419,16.663,0.642c0.04-0.289,0.074-0.579,0.113-0.868
							C170.683,418.856,168.171,417.045,166.274,414.878z"/>
						<path style="fill:none;stroke:#AB471C;stroke-width:0.9745;stroke-miterlimit:10;" d="M151.737,231.637
							c2.161,5.331,4.953,8.409,10.375,10.459"/>
						<path style="fill:#464646;" d="M156.32,439.602c0.082-1.348-0.047-3.072,0.115-4.334s0.595-1.573,1.729-1.738
							c1.661-0.243,3.692,0.164,5.279-0.001c2.468-0.257,3.684-1.122,5.35-2.827c0.547-0.56,0.296-1.184,1.069-1.804
							c2.715-2.175,5.278-3.498,8.816-1.7c3.538,1.798,5.926,4.448,10.129,5.734c4.203,1.285,8.818,2.697,10.461,7.506
							C184.99,440.184,170.632,439.928,156.32,439.602z"/>
						<path style="fill:#696563;" d="M199.242,444.636c-14.33-0.27-28.66-0.54-42.99-0.821c0.025-1.395,0.051-2.79,0.074-4.185
							c14.331,0.282,28.663,0.553,42.994,0.822C199.294,441.847,199.268,443.241,199.242,444.636z"/>
						
							<path style="fill:none;stroke:#AB471C;stroke-width:0.9745;stroke-linecap:round;stroke-linejoin:round;stroke-miterlimit:10;" d="
							M140.014,227.275c-0.825,13.097-2.468,25.917-5.239,38.747"/>
						<path style="fill:none;stroke:#AB471C;stroke-width:0.9745;stroke-miterlimit:10;" d="M136.508,257.893
							c3.765-3.669,4.827-2.191,6.91-8.219c2.083-6.028,4.409-16.674,5.413-23.691"/>
					</g>
					<g>
						<g>
							<path style="fill:#D4856C;" d="M95.778,410.863c0.029,6.496,0.068,12.992,0.106,19.488c4.1,0.236,8.199,0.471,12.299,0.707
								c0.337-6.759,0.679-13.518,1.026-20.277C104.732,410.807,100.255,410.835,95.778,410.863z"/>
							<path style="fill:#F77943;" d="M87.749,252.431c2.342-17.286,4.841-26.448,16.722-35.32
								c11.228,1.396,21.842,3.913,32.455,7.816c-0.915,11.25-0.056,21.441-1.327,33.208c-0.098,0.91-1.338,6.704-2.398,8.033
								c-5.426,16.524-7.47,29.914-10.64,56.117c-4.288,42.472-7.492,69.023-11.718,95.715c-5.449-0.264-11.065-0.623-16.377-1.041
								C91.714,390.658,84.982,294.257,87.749,252.431z"/>
							<path style="fill:#C15F34;" d="M98.886,363.215c-0.018-9.553-0.132-19.072-0.572-28.621
								c-1.242-26.946,4.455-71.958,5.459-80.844c1.38-12.222,4.14-24.289,8.76-35.42c-2.658-0.474-5.341-0.881-8.062-1.219
								c-11.881,8.872-14.38,18.034-16.722,35.32c-2.767,41.826,3.965,138.228,6.718,164.529c1.713,0.134,3.462,0.26,5.222,0.381
								C99.083,399.307,98.921,381.26,98.886,363.215z"/>
							<path style="fill:none;stroke:#AB471C;stroke-width:0.9745;stroke-miterlimit:10;" d="M104.255,242.606
								c7.841,0.476,14.121-0.187,18.307-7.461"/>
						</g>
						<g>
							<path style="fill:#464646;" d="M112.22,443.573H86.507c0,0-1.641-5.881,4.65-12.309c6.291-6.428,5.608-7.112,10.395-6.975
								c4.787,0.137,8.206,0.547,8.89,4.377C111.126,432.494,113.451,436.461,112.22,443.573z"/>
							<rect x="86.507" y="443.573" style="fill:#696563;" width="25.762" height="3.875"/>
						</g>
					</g>
					<g>
						<g>
							<g>
								<path style="fill:#D4856C;" d="M208.306,93.535c-3.221,8.734-15.84,35.06-16.613,43.598
									c-13.315,1.094-30.669-4.927-43.752-0.788c-7.859,2.486-16.464,9.709-6.567,19.021c2.461,2.315,23.968,3.966,31.494,0.706
									c3.478-1.506,29.257-3.614,31.565-10.293c1.761-5.098,11.233-45.685,12.719-49.173
									C214.252,95.432,211.171,94.752,208.306,93.535z"/>
								<path style="fill:#D47D66;" d="M187.349,148.986c-8.782,0.3-17.928-0.813-26.449-2.902
									c-6.163-1.51-12.566-3.725-17.536-7.738c-5.95,3.412-9.939,9.541-1.99,17.021c2.461,2.315,23.968,3.966,31.494,0.706
									c3.455-1.496,28.898-3.588,31.503-10.161C198.594,147.75,192.733,148.802,187.349,148.986z"/>
								<g>
									<g>
										<g>
											<path style="fill:#FF7D5B;" d="M207.879,79.022c-0.098,1.148-0.141,2.259-0.093,3.357l0.102,1.711l0.054,0.9
												c0.012,0.134,0.006,0.344,0.034,0.416c0.025,0.094,0.035,0.174,0.069,0.275c0.212,0.762,0.637,1.631,1.169,2.39
												c0.523,0.754,1.179,1.459,1.767,1.821c1.615,0.994,2.119,3.108,1.125,4.723s-3.108,2.119-4.723,1.125
												c-0.406-0.25-0.741-0.57-1.001-0.936l-0.325-0.463c-0.976-1.389-1.506-2.744-1.901-4.142
												c-0.374-1.398-0.585-2.828-0.448-4.413c0.012-0.192,0.051-0.405,0.08-0.604c0.033-0.222,0.057-0.303,0.086-0.462
												l0.163-0.855l0.344-1.796c0.257-1.237,0.616-2.44,1.012-3.583c0.231-0.669,0.961-1.024,1.63-0.792
												c0.566,0.196,0.907,0.748,0.858,1.319L207.879,79.022z"/>
										</g>
										<path style="fill:#D4856C;" d="M206.875,93.722c0.708,4.953,5.801,6.251,7.985,4.913c5.289-3.239,5.476-5.948,7.51-11.398
											c1.16-3.108,1.574-7.608-3.143-8.794c-1.42-0.357-4.796-0.379-6.648,0.451c-1.853,0.83-3.95,4.815-4.321,6.26
											C207.39,88.526,207.305,90.667,206.875,93.722z"/>
										<g>
											<path style="fill:#FF7D5B;" d="M209.504,82.489c0.158-2.325,0.234-4.559-0.124-6.643
												c-0.351-2.083-1.21-4.093-2.365-6.065l-0.003-0.005c-0.441-0.753-0.188-1.72,0.564-2.161
												c0.701-0.411,1.588-0.219,2.063,0.417c1.493,1.997,2.841,4.315,3.581,6.902c0.743,2.581,0.915,5.171,1.023,7.617
												c0.058,1.31-0.956,2.419-2.266,2.477c-1.31,0.058-2.419-0.956-2.477-2.266c-0.004-0.089-0.003-0.177,0.003-0.264
												L209.504,82.489z"/>
										</g>
										<g>
											<path style="fill:#FF7D5B;" d="M212.439,82.018c0.294-2.332,0.336-4.673-0.011-6.944c-0.343-2.27-1.09-4.465-2.278-6.454
												l-0.004-0.007c-0.447-0.748-0.203-1.718,0.546-2.165c0.698-0.417,1.591-0.227,2.071,0.406
												c1.643,2.184,2.834,4.741,3.526,7.4c0.7,2.662,0.932,5.406,0.878,8.096l0,0.012c-0.026,1.311-1.11,2.352-2.421,2.326
												c-1.311-0.026-2.352-1.11-2.326-2.421C212.423,82.184,212.429,82.099,212.439,82.018z"/>
										</g>
										<g>
											<path style="fill:#FF7D5B;" d="M218.424,81.685c0.24-1.644,0.488-3.218,0.469-4.608c-0.02-1.393-0.322-2.549-1.159-3.608
												l-0.024-0.03c-0.541-0.685-0.425-1.679,0.26-2.22c0.615-0.486,1.48-0.441,2.042,0.07c0.74,0.671,1.398,1.516,1.868,2.455
												c0.475,0.938,0.763,1.939,0.935,2.896c0.333,1.927,0.307,3.692,0.338,5.365c0.024,1.314-1.022,2.398-2.335,2.422
												c-1.314,0.024-2.398-1.021-2.422-2.335c-0.002-0.127,0.005-0.252,0.022-0.374L218.424,81.685z"/>
										</g>
										<g>
											<path style="fill:#FF7D5B;" d="M217.517,86.865c0.039-2.779-0.075-5.523-0.541-8.174c-0.464-2.647-1.296-5.2-2.656-7.465
												l-0.004-0.007c-0.449-0.747-0.207-1.717,0.541-2.166c0.703-0.422,1.606-0.227,2.084,0.418
												c1.843,2.506,3.086,5.406,3.884,8.344c0.804,2.947,1.199,5.943,1.43,8.892l0,0.006c0.103,1.306-0.873,2.449-2.18,2.551
												c-1.306,0.103-2.449-0.873-2.551-2.18C217.519,87.012,217.516,86.936,217.517,86.865z"/>
										</g>
									</g>
								</g>
							</g>
						</g>
						<path style="fill:#88CBE3;" d="M168.773,134.915c-6.293,0-16.434-2.414-24.536-1.855c-12.431,0.859-16.67,16.239-3.108,23.257
							c3.488,1.805,21.589,6.558,27.643,5.253C171.255,153.8,172.165,142.352,168.773,134.915z"/>
						<path style="fill:#79B3C9;" d="M160.73,154.812c-10.433-1.265-19.957-4.961-27.923-11.548
							c-0.489,4.615,1.953,9.756,8.323,13.052c3.488,1.805,21.589,6.558,27.643,5.253c0.582-1.823,1.073-3.852,1.447-5.98
							C167.002,155.481,163.807,155.185,160.73,154.812z"/>
					</g>
					<g>
						<path style="fill:#C15F34;" d="M101.062,212.843c3.856,3.196,13.68,9.365,29.649,6.495c12.988-2.334,18.407-4.016,20.66-4.967
							c1.188,2.398,2.474,4.747,3.872,7.043c-1.898,1.597-6.01,3.719-14.909,5.733c-15.387,3.483-35.896-1.34-43.261-8.254
							C97.976,216.665,99.507,214.74,101.062,212.843z"/>
						<path style="fill:none;stroke:#FF6A2A;stroke-width:3.3657;stroke-miterlimit:10;" d="M101.772,215.273
							c0,0-3.546,1.885-3.085,7.752"/>
						<path style="fill:none;stroke:#FF6A2A;stroke-width:3.3657;stroke-miterlimit:10;" d="M115.07,219.563
							c0,0-3.512,3.378-3.051,9.245"/>
						<path style="fill:none;stroke:#FF6A2A;stroke-width:3.3657;stroke-miterlimit:10;" d="M128.085,221.784
							c0,0-0.781,4.213,1.483,9.439"/>
						<path style="fill:none;stroke:#FF6A2A;stroke-width:3.3657;stroke-miterlimit:10;" d="M140.597,220.337
							c0.099,0.045,0.925,5.578,1.633,9.425"/>
						<path style="fill:none;stroke:#FF6A2A;stroke-width:3.3657;stroke-miterlimit:10;" d="M147.147,216.34
							c0,0,4.917,2.674,7.146,8.392"/>
					</g>
					<g>
						<path style="fill:#88CBE3;" d="M153.833,196.204c-1.584-8.373-2.373-2.306,0.701-16.135
							c2.007-9.027,7.682-13.432,5.256-20.502c-4.842-14.109-2.033-26.678-19.327-26.505H122.11
							c-27.86,4.978-27.896,12.841-27.86,25.487l11.289,25.158c2.258,5.295,0.621,7.039-1.165,12.113
							c-1.47,4.178-4.945,9.358-6.287,10.913c-5.608,6.495,1.417,9.63,1.417,9.63s20.303,9.882,48.913,3.993
							c4.763-1.561,8.027-3.414,11.412-7.433c0,0,3.397-1.892-0.116-6.583C156.558,202.126,154.535,199.917,153.833,196.204z"/>
						<path style="fill:#79B3C9;" d="M116.702,199.294c-1.34-5.174-2.858-9.966-2.198-15.369c1.008-8.247,4.475-15.675,2.966-24.169
							c-1.518-8.544-6.766-15.633-12.377-21.991c-10.844,4.872-10.87,11.553-10.843,20.783l11.289,25.158
							c2.258,5.295,0.621,7.039-1.165,12.114c-1.47,4.178-4.945,9.358-6.287,10.912c-5.608,6.495,1.417,9.63,1.417,9.63
							s5.39,2.616,14.513,4.354c-2.82-1.567-4.158-5.013-3.5-7.402C111.752,208.829,118.038,204.457,116.702,199.294z"/>
						<path style="fill:#79B3C9;" d="M126.767,145.157c3.384,2.684,8.323,4.026,12.498,4.11c4.463,0.09,7.606-1.485,8.306-6.825
							c0.393-2.997-4.528-9.302-4.839-9.322c-0.715-0.046-1.469-0.066-2.269-0.058H122.11c-0.458,0.082-0.889,0.167-1.332,0.25
							C120.778,137.773,122.898,142.088,126.767,145.157z"/>
						<path style="fill:#79B3C9;" d="M124.957,181.963c0,0,14.706-1.359,16.97-8.713c0,0-0.302,5.826,1.561,8.713
							C143.488,181.963,133.962,185.264,124.957,181.963z"/>
					</g>
					<g>
						<g>
							<path style="fill:#D4856C;" d="M123.634,135.657c0,0,4.629,11.944,17.698,9.655c5.453-1.315-0.469-10.906-0.469-10.906
								c-0.159-0.959-0.282-1.74-0.195-4.28c-0.259-3.109-0.242-7.671,1.195-10.944c-1.778-2.742-12.536-3.304-15.631,0.384
								C127.63,124.924,123.634,135.657,123.634,135.657z"/>
							<path style="fill:#D47D66;" d="M130.715,125.332c2.206,1.654,4.86,2.675,7.486,3.456c0.791,0.235,1.601,0.445,2.42,0.629
								c-0.198-3.066-0.092-7.199,1.242-10.236c-1.778-2.742-12.536-3.304-15.631,0.384c0.033,0.125,0.062,0.257,0.092,0.388
								C127.54,121.951,128.801,123.899,130.715,125.332z"/>
						</g>
						<g>
							<path style="fill:#464646;" d="M160.96,98.543c0,2.015-1.633,3.648-3.648,3.648s-3.648-1.633-3.648-3.648
								c0-2.015,1.633-3.648,3.648-3.648S160.96,96.528,160.96,98.543z"/>
							<circle style="fill:#464646;" cx="155.968" cy="103.005" r="2.305"/>
							<path style="fill:#464646;" d="M151.504,110.053l1.467-23.683l9.228-0.385c0,0,1.879,11.534-8.462,21.498
								C153.729,107.49,151.594,110.079,151.504,110.053z"/>
							<path style="fill:#464646;" d="M163.041,94.665c0,2.015-1.633,3.648-3.648,3.648s-3.648-1.633-3.648-3.648
								c0-2.015,1.633-3.648,3.648-3.648S163.041,92.65,163.041,94.665z"/>
							<path style="fill:#D4856C;" d="M131.418,86.888c5.057-3.953,3.78-7.746,10.546-6.292c0.224,0.048,0.457,0.112,0.688,0.171
								c0.234,0.041,0.472,0.078,0.697,0.127c6.766,1.453,9.421,1.655,12.662,7.245c4.193,7.231-0.322,18.619-1.1,22.421
								c-2.214,10.821-6.022,16.744-13.495,15.585c-4.23-0.303-7.998-0.855-14.48-5.473c-5.333-5.248-5.022-11.152-4.164-16.828
								C123.352,100.006,128.257,89.36,131.418,86.888z"/>
							<path style="fill:#FFFFFF;" d="M138.412,115.816c0.866,1.671,4.661,3.111,6.903,1.751c0,0-0.817,4.187-4.451,3.292
								C137.229,119.964,138.412,115.816,138.412,115.816z"/>
							<path style="fill:#653B27;" d="M141.644,106.297c-0.167,0.658-0.652,1.102-1.083,0.993c-0.431-0.11-0.645-0.732-0.477-1.389
								c0.167-0.658,0.652-1.102,1.083-0.993C141.597,105.017,141.811,105.639,141.644,106.297z"/>
							<path style="fill:#653B27;" d="M151.093,107.486c-0.151,0.595-0.59,0.997-0.981,0.898c-0.391-0.099-0.584-0.662-0.433-1.257
								c0.151-0.595,0.59-0.997,0.981-0.898C151.051,106.328,151.245,106.891,151.093,107.486z"/>
							<g>
								<path style="fill:#653B27;" d="M146.783,108.748c0.105,0.47,0.202,0.931,0.39,1.275c0.104,0.174,0.194,0.3,0.376,0.539
									c0.193,0.24,0.315,0.678,0.284,0.979c-0.101,0.742-0.551,1.214-1.072,1.501c-0.529,0.285-1.184,0.32-1.698,0.086
									c-0.124-0.057-0.179-0.203-0.122-0.328c0.042-0.092,0.133-0.146,0.227-0.145l0.015,0c0.439,0.005,0.826-0.111,1.134-0.343
									c0.303-0.218,0.556-0.58,0.551-0.827c0.01-0.188,0.005-0.252-0.089-0.412c-0.099-0.162-0.311-0.428-0.393-0.711
									c-0.191-0.565-0.18-1.103-0.09-1.609c0.024-0.135,0.153-0.225,0.287-0.201c0.102,0.018,0.178,0.095,0.199,0.19
									L146.783,108.748z"/>
							</g>
							<g>
								<path style="fill:#533A39;" d="M141.351,99.852c-0.434-0.022-0.872-0.103-1.268-0.143c-0.4-0.051-0.799-0.094-1.207-0.052
									c-0.406,0.044-0.822,0.118-1.24,0.259c-0.215,0.052-0.415,0.161-0.639,0.223c-0.214,0.088-0.421,0.198-0.652,0.28
									l-0.065,0.023c-0.257,0.091-0.538-0.043-0.63-0.3c-0.062-0.175-0.019-0.363,0.096-0.493
									c0.361-0.406,0.779-0.782,1.274-1.068c0.489-0.296,1.052-0.49,1.637-0.601c0.59-0.087,1.209-0.083,1.79,0.079
									c0.584,0.174,1.098,0.47,1.493,1.017c0.16,0.222,0.11,0.531-0.111,0.691c-0.095,0.069-0.206,0.099-0.315,0.093
									L141.351,99.852z"/>
							</g>
							<g>
								<path style="fill:#533A39;" d="M149.716,100.352c0.132-0.496,0.616-0.856,1.095-0.967c0.489-0.115,0.968-0.029,1.385,0.117
									c0.838,0.307,1.456,0.983,1.702,1.744c0.086,0.265-0.06,0.549-0.324,0.635c-0.154,0.05-0.315,0.021-0.44-0.063l-0.048-0.033
									c-0.499-0.346-0.967-0.566-1.407-0.672c-0.218-0.059-0.422-0.053-0.593-0.059c-0.179-0.006-0.326-0.053-0.644-0.05
									l-0.22,0.002c-0.286,0.002-0.521-0.228-0.523-0.514C149.699,100.443,149.705,100.395,149.716,100.352z"/>
							</g>
							<g>
								<circle style="fill:#464646;" cx="129.31" cy="63.364" r="7.089"/>
								<circle style="fill:#464646;" cx="132.745" cy="59.479" r="7.089"/>
								<circle style="fill:#464646;" cx="142.669" cy="59.479" r="7.089"/>
								<circle style="fill:#464646;" cx="138.228" cy="66.644" r="7.089"/>
								<path style="fill:#464646;" d="M156.061,69.255c0,3.915-3.174,7.089-7.089,7.089c-3.915,0-7.089-3.174-7.089-7.089
									s3.174-7.089,7.089-7.089C152.887,62.166,156.061,65.34,156.061,69.255z"/>
								<circle style="fill:#464646;" cx="120.145" cy="70.453" r="7.089"/>
								<circle style="fill:#464646;" cx="122.562" cy="62.262" r="7.089"/>
								<circle style="fill:#464646;" cx="117.845" cy="80.486" r="7.089"/>
							</g>
							<path style="fill:#F77943;" d="M156.302,78.374c0,0-1.99-12.246-22.254-11.73c-20.265,0.515-14.921,23.505-14.921,23.505
								L156.302,78.374z"/>
							
								<path style="fill:none;stroke:#AB471C;stroke-width:0.9745;stroke-linecap:round;stroke-linejoin:round;stroke-miterlimit:10;" d="
								M148.972,71.541c0,0-10.655-6.616-22.913,0.762"/>
							<path style="fill:#464646;" d="M163.598,83.433c0,2.015-1.633,3.648-3.648,3.648s-3.648-1.633-3.648-3.648
								c0-2.015,1.633-3.648,3.648-3.648S163.598,81.418,163.598,83.433z"/>
							<path style="fill:#464646;" d="M162.199,85.985c-2.462-9.894-26.368-13.683-26.368-13.683s-10.208-0.064-15.375,12.051
								c-2.752,7.436-1.004,16.26-1.004,16.26l3.401-0.224c0,0,7.285-0.414,7.937-6.116c10.262,2.61,18.434,0.85,28.558-4.826
								C160.576,88.579,162.673,87.891,162.199,85.985z"/>
							<circle style="fill:#464646;" cx="160.953" cy="89.326" r="3.648"/>
							<path style="fill:#464646;" d="M137.292,94.895c0,2.145-1.739,3.884-3.885,3.884c-2.145,0-3.884-1.739-3.884-3.884
								c0-2.145,1.739-3.884,3.884-3.884C135.552,91.01,137.292,92.749,137.292,94.895z"/>
							<path style="fill:#464646;" d="M132.126,98.03c0,1.555-1.261,2.816-2.816,2.816c-1.555,0-2.816-1.261-2.816-2.816
								c0-1.555,1.261-2.816,2.816-2.816C130.865,95.213,132.126,96.474,132.126,98.03z"/>
							<path style="fill:#464646;" d="M130.939,101.851c0,1.555-1.261,2.816-2.816,2.816c-1.556,0-2.816-1.261-2.816-2.816
								c0-1.555,1.261-2.816,2.816-2.816C129.678,99.034,130.939,100.295,130.939,101.851z"/>
							<circle style="fill:#464646;" cx="126.706" cy="99.034" r="2.136"/>
							<path style="fill:#464646;" d="M128.876,104.667c0,0.918-0.744,1.662-1.662,1.662c-0.918,0-1.662-0.744-1.662-1.662
								s0.744-1.662,1.662-1.662C128.132,103.005,128.876,103.749,128.876,104.667z"/>
							<path style="fill:#464646;" d="M143.681,92.782c0,2.018-1.636,3.655-3.655,3.655c-2.018,0-3.655-1.636-3.655-3.655
								c0-2.018,1.636-3.655,3.655-3.655C142.044,89.127,143.681,90.763,143.681,92.782z"/>
							<path style="fill:#464646;" d="M158.454,90.113c0,2.018-1.636,3.655-3.655,3.655c-2.018,0-3.654-1.636-3.654-3.655
								c0-2.018,1.636-3.655,3.654-3.655C156.818,86.458,158.454,88.095,158.454,90.113z"/>
							<circle style="fill:#464646;" cx="150.387" cy="91.43" r="3.654"/>
							<path style="fill:#464646;" d="M148.972,93.803c0,2.018-1.636,3.655-3.655,3.655c-2.018,0-3.655-1.636-3.655-3.655
								c0-2.018,1.636-3.655,3.655-3.655C147.336,90.149,148.972,91.785,148.972,93.803z"/>
							<path style="fill:#464646;" d="M127.007,105.1c0,0-1.041,1.408-0.677,2.329c0.364,0.922-0.348,1.921-0.348,1.921
								s1.21-0.188,1.305-2.125c0.095-1.938,1.185-2.288,0.532-2.649C127.364,104.323,127.007,105.1,127.007,105.1z"/>
							<circle style="fill:#464646;" cx="121.242" cy="98.019" r="3.655"/>
							<circle style="fill:#464646;" cx="121.242" cy="89.326" r="3.655"/>
							<path style="fill:#464646;" d="M126.127,84.749c0,2.018-1.636,3.655-3.654,3.655c-2.018,0-3.655-1.636-3.655-3.655
								c0-2.018,1.636-3.655,3.655-3.655C124.491,81.095,126.127,82.731,126.127,84.749z"/>
							<path style="fill:#464646;" d="M137.062,73.733c0,2.018-1.636,3.655-3.655,3.655c-2.018,0-3.654-1.636-3.654-3.655
								c0-2.018,1.636-3.654,3.654-3.654C135.425,70.078,137.062,71.714,137.062,73.733z"/>
							<path style="fill:#464646;" d="M123.799,93.803c0,2.018-1.636,3.655-3.654,3.655c-2.018,0-3.655-1.636-3.655-3.655
								c0-2.018,1.636-3.655,3.655-3.655C122.163,90.149,123.799,91.785,123.799,93.803z"/>
							<g>
								<path style="fill:#D4856C;" d="M126.059,99.826c-0.486-0.607-1.687-1.317-2.427-1.505c-2.285-0.581-5.054-0.171-5.83,2.879
									c-0.776,3.05,0.55,6.077,3.983,7.841c0.744,0.382,2.098,0.706,2.873,0.331C125.179,106.068,125.651,105.468,126.059,99.826z
									"/>
								
									<path style="fill:none;stroke:#653B27;stroke-width:0.9745;stroke-linecap:round;stroke-linejoin:round;stroke-miterlimit:10;" d="
									M124.801,102.848c-0.481-1.656-3.593-3.14-4.657-0.733"/>
							</g>
							<circle style="fill:#464646;" cx="141.864" cy="76.344" r="7.089"/>
							<circle style="fill:#464646;" cx="128.842" cy="80.486" r="7.089"/>
							<circle style="fill:#464646;" cx="153.492" cy="79.485" r="5.264"/>
							<path style="fill:#464646;" d="M153.184,76.838c0,2.015-1.633,3.648-3.648,3.648s-3.648-1.633-3.648-3.648
								s1.633-3.648,3.648-3.648S153.184,74.823,153.184,76.838z"/>
						</g>
					</g>
					<path style="fill:#B33650;" d="M101.788,188.449c0.001,0.022,0.002,0.062,0.003,0.088
						C101.825,188.507,101.834,188.476,101.788,188.449z"/>
					<g>
						<path style="fill:#464646;" d="M159.496,175.383c-4.954-0.461-9.909-0.923-14.863-1.384
							c-3.851,6.272-7.703,12.543-11.554,18.815c4.831,0.45,9.664,0.891,14.496,1.327
							C151.584,187.911,155.53,181.64,159.496,175.383z"/>
						<path style="fill:#464646;" d="M159.496,175.383c-0.046-0.846-0.092-1.692-0.138-2.538c-4.954-0.461-9.909-0.923-14.864-1.384
							c0.046,0.846,0.092,1.692,0.138,2.538C149.587,174.46,154.541,174.921,159.496,175.383z"/>
						<path style="fill:#7A7A7A;" d="M144.494,171.461c-3.88,6.268-7.76,12.536-11.64,18.805c0.075,0.849,0.149,1.698,0.224,2.548
							c3.851-6.272,7.703-12.543,11.554-18.815C144.586,173.153,144.54,172.307,144.494,171.461z"/>
					</g>
					<g>
						<g>
							<path style="fill:#D4856C;" d="M129.788,192.881c-0.607-1.633-0.772-3.768,0.323-5.765c1.095-1.997,4.617-4.836,6.559-5.475
								c1.943-0.639,2.556-0.928,4.111-1.369c0.781-0.221,1.394-0.399,2.051-0.459c0.657-0.06,1.363,0.128,1.242,1.026
								c-0.584,4.334,1.138,8.127-0.748,12.947C143.073,194.431,131.309,196.975,129.788,192.881z"/>
							<g>
								<path style="fill:#D4856C;" d="M140.904,177.27c-1.769,1.713-3.19,3.629-3.906,5.569c-0.726,1.944-0.755,3.845-0.371,5.751
									c0.5,2.48-1.104,4.895-3.584,5.396c-2.48,0.5-4.895-1.104-5.396-3.584c-0.116-0.576-0.119-1.148-0.024-1.693l0.078-0.43
									c0.288-1.619,0.767-3.236,1.466-4.745c0.696-1.51,1.609-2.9,2.664-4.082c2.123-2.38,4.671-3.918,7.185-5.039
									c0.875-0.391,1.902,0.003,2.292,0.878c0.305,0.683,0.132,1.459-0.375,1.952L140.904,177.27z"/>
							</g>
							<g>
								<path style="fill:#D4856C;" d="M140.68,189.683c2.854-0.339,5.537-0.01,8.069,0.466c2.536,0.485,4.95,1.154,7.337,1.715
									l0.006,0.001c0.654,0.154,1.059,0.808,0.905,1.462c-0.139,0.591-0.688,0.979-1.274,0.934
									c-2.518-0.189-4.981-0.467-7.379-0.543c-2.389-0.077-4.728,0.049-6.764,0.639c-1.268,0.367-2.593-0.362-2.96-1.63
									c-0.367-1.268,0.362-2.593,1.63-2.96c0.123-0.036,0.247-0.061,0.37-0.076L140.68,189.683z"/>
							</g>
							<g>
								<path style="fill:#D4856C;" d="M140.724,186.529c1.465-0.647,2.956-0.907,4.359-0.983c1.408-0.074,2.749,0.03,4.043,0.207
									c2.583,0.36,5,1.024,7.347,1.554l0.014,0.003c0.666,0.15,1.084,0.812,0.933,1.478c-0.136,0.603-0.692,1.002-1.29,0.961
									c-2.506-0.171-4.918-0.435-7.236-0.391c-2.292,0.035-4.53,0.418-5.978,1.395c-1.096,0.739-2.584,0.45-3.323-0.646
									c-0.739-1.096-0.45-2.584,0.646-3.323c0.116-0.078,0.236-0.145,0.359-0.2L140.724,186.529z"/>
							</g>
							<g>
								<path style="fill:#D4856C;" d="M141.431,182.644c2.708-0.579,5.339-0.583,7.856-0.423c2.521,0.165,4.951,0.513,7.347,0.782
									c0.654,0.071,1.126,0.66,1.055,1.313c-0.064,0.589-0.551,1.03-1.124,1.06c-2.462,0.125-4.888,0.179-7.23,0.41
									c-2.336,0.229-4.597,0.639-6.566,1.424c-1.226,0.489-2.616-0.109-3.105-1.335c-0.489-1.226,0.109-2.616,1.335-3.105
									c0.123-0.049,0.247-0.087,0.372-0.115L141.431,182.644z"/>
							</g>
							<g>
								<path style="fill:#D4856C;" d="M137.27,181.06c1.313-0.956,2.743-1.512,4.114-1.857c1.378-0.343,2.722-0.487,4.031-0.547
									c2.614-0.112,5.115,0.122,7.525,0.241l0.014,0.001c0.648,0.032,1.148,0.583,1.116,1.231
									c-0.029,0.584-0.479,1.047-1.041,1.11c-2.495,0.283-4.918,0.463-7.185,0.943c-2.243,0.463-4.36,1.284-5.527,2.534
									c-0.903,0.967-2.42,1.019-3.387,0.115c-0.967-0.903-1.018-2.42-0.115-3.386c0.103-0.11,0.213-0.208,0.33-0.294
									L137.27,181.06z"/>
							</g>
						</g>
						<path style="fill:#D4856C;" d="M129.952,185.361c-9.071,2.611-18.867,3.096-28.335,3.736
							c2.923-8.299,9.694-18.921,12.22-26.738c2.525-7.817,5.65-17.481-0.791-24.099c-2.74-2.364-10.685-2.718-17.357,9.217
							c-5.973,10.684-8.661,25.528-11.366,44.904c-2.483,17.787,4.63,17.683,29.264,9.444c2.137-0.715,14.277-6.459,18.667-7.9
							C132.858,193.726,131.622,185.962,129.952,185.361z"/>
						<path style="fill:#D47D66;" d="M88.206,192.38c1.672-10.074,5.04-22.368,8.594-31.643c3.017-7.874,6.794-15.54,9.759-23.452
							c-3.319,0.906-7.278,3.766-10.87,10.191c-5.973,10.684-8.661,25.528-11.366,44.904c-2.483,17.787,4.63,17.683,29.265,9.444
							c0.89-0.298,3.516-1.468,6.592-2.836C85.293,207.184,86.479,202.788,88.206,192.38z"/>
						<path style="fill:#88CBE3;" d="M114.283,174.845c1.285-2.679,12.199-29.255-1.285-37.633
							c-4.864-2.182-12.789-0.873-18.299,9.682c-2.169,4.154-3.745,9.208-4.608,14.708
							C93.582,167.615,110.883,174.193,114.283,174.845z"/>
						<path style="fill:#79B3C9;" d="M105.163,136.887c-3.608,1.145-7.407,4.15-10.465,10.007
							c-2.169,4.154-3.745,9.208-4.608,14.708c0.873,1.504,2.612,3.043,4.78,4.516C95.675,155.582,99.485,142.234,105.163,136.887z"
							/>
					</g>
				</g>
				<g>
					<g>
						<path id="XMLID_17_" style="fill:#3275BF;" d="M369.798,43.666H227.086c-19.46,0-35.293,15.836-35.293,35.296V415.97
							c0,19.464,15.833,35.296,35.293,35.296h142.712c19.46,0,35.291-15.831,35.291-35.296V78.962
							C405.089,59.502,389.258,43.666,369.798,43.666z"/>
						<path id="XMLID_19_" style="fill:#696563;" d="M361.301,43.666H218.589c-19.46,0-35.293,15.836-35.293,35.296V415.97
							c0,19.464,15.833,35.296,35.293,35.296h142.712c19.46,0,35.291-15.831,35.291-35.296V78.962
							C396.592,59.502,380.761,43.666,361.301,43.666z"/>
						<path id="XMLID_15_" style="fill:#464646;" d="M369.798,43.666H227.086c-19.46,0-35.293,15.836-35.293,35.296V415.97
							c0,19.464,15.833,35.296,35.293,35.296h142.712c19.46,0,35.291-15.831,35.291-35.296V78.962
							C405.089,59.502,389.258,43.666,369.798,43.666z"/>
						<g>
							<g style="opacity:0.48;">
								<path id="XMLID_14_" style="fill:#7A7A7A;" d="M366.126,76.147c2.097,0,3.798-1.699,3.798-3.798
									c0-2.099-1.701-3.784-3.798-3.784c-2.099,0-3.798,1.685-3.798,3.784C362.328,74.449,364.026,76.147,366.126,76.147z"/>
								<path id="XMLID_13_" style="fill:#7A7A7A;" d="M230.757,76.147c2.097,0,3.797-1.699,3.797-3.798
									c0-2.099-1.701-3.784-3.797-3.784c-2.099,0-3.798,1.685-3.798,3.784C226.959,74.449,228.658,76.147,230.757,76.147z"/>
							</g>
							<g>
								<path id="XMLID_12_" style="fill:#7A7A7A;" d="M284.231,83.854h28.423c2.084,0,3.774-1.694,3.774-3.78
									c0-2.081-1.69-3.775-3.774-3.775h-28.423c-2.083,0-3.775,1.694-3.775,3.775C280.455,82.16,282.147,83.854,284.231,83.854z"
									/>
							</g>
							<path id="XMLID_9_" style="fill:#7A7A7A;" d="M298.441,411.768c-6.799,0-12.33,5.532-12.33,12.332
								c0,6.796,5.532,12.326,12.33,12.326c6.801,0,12.331-5.53,12.331-12.326C310.772,417.3,305.241,411.768,298.441,411.768z
								 M298.441,433.013c-4.915,0-8.917-3.998-8.917-8.912c0-4.917,4.002-8.917,8.917-8.917c4.92,0,8.919,4,8.919,8.917
								C307.359,429.015,303.36,433.013,298.441,433.013z"/>
						</g>
					</g>
					<path id="XMLID_5_" style="fill:#FFFFFF;" d="M383.69,394.752h-170.5c-5.726,0-10.368-4.642-10.368-10.368V94.222
						c0-5.726,4.642-10.368,10.368-10.368h170.5c5.726,0,10.368,4.642,10.368,10.368v290.162
						C394.058,390.11,389.416,394.752,383.69,394.752z"/>
					<g>
						<path style="fill:#C7CBDB;" d="M394.058,105.413V94.222c0-5.726-4.642-10.368-10.368-10.368h-170.5
							c-5.726,0-10.368,4.642-10.368,10.368v11.191H394.058z"/>
						<g>
							<g>
								<g>
									
										<line style="fill:none;stroke:#463D3D;stroke-width:1.0621;stroke-miterlimit:10;" x1="214.988" y1="93.52" x2="232.331" y2="93.52"/>
									
										<line style="fill:none;stroke:#463D3D;stroke-width:1.0621;stroke-miterlimit:10;" x1="214.988" y1="97.634" x2="232.331" y2="97.634"/>
									
										<line style="fill:none;stroke:#463D3D;stroke-width:1.0621;stroke-miterlimit:10;" x1="214.988" y1="101.747" x2="232.331" y2="101.747"/>
								</g>
								<path id="Shape_1_" style="fill:#464646;" d="M369.912,99.087c0.12,0.403,0.285,0.791,0.495,1.156l-0.597,0.741
									c-0.195,0.242-0.173,0.588,0.046,0.806l1.026,1.009c0.223,0.219,0.578,0.239,0.825,0.047l0.746-0.581
									c0.385,0.218,0.795,0.389,1.222,0.508l0.111,0.941c0.037,0.31,0.304,0.543,0.621,0.543h1.443
									c0.316,0,0.582-0.233,0.618-0.541l0.107-0.909c0.458-0.117,0.898-0.292,1.309-0.52l0.724,0.563
									c0.246,0.192,0.597,0.17,0.819-0.046l1.021-1.005c0.225-0.221,0.246-0.573,0.049-0.819l-0.559-0.697
									c0.234-0.398,0.417-0.822,0.539-1.266l0.862-0.097c0.315-0.036,0.552-0.298,0.552-0.609v-1.418
									c0-0.311-0.237-0.573-0.552-0.609l-0.85-0.098c-0.117-0.439-0.293-0.858-0.517-1.252l0.527-0.654
									c0.195-0.242,0.173-0.587-0.046-0.806l-1.023-1.006c-0.223-0.219-0.578-0.24-0.825-0.047l-0.644,0.502
									c-0.419-0.242-0.868-0.427-1.339-0.551l-0.096-0.816c-0.037-0.31-0.304-0.543-0.621-0.543h-1.439
									c-0.317,0-0.584,0.233-0.621,0.543l-0.097,0.816c-0.483,0.127-0.943,0.319-1.372,0.571l-0.671-0.523
									c-0.246-0.192-0.597-0.17-0.819,0.046l-1.024,1.006c-0.224,0.22-0.245,0.571-0.048,0.815l0.558,0.694
									c-0.224,0.398-0.395,0.823-0.507,1.264l-0.892,0.1c-0.314,0.035-0.552,0.297-0.552,0.608v1.419
									c0,0.311,0.237,0.573,0.552,0.609L369.912,99.087z M375.072,95.028c1.34,0,2.43,1.075,2.43,2.395
									c0,1.32-1.091,2.395-2.43,2.395c-1.339,0-2.43-1.075-2.43-2.395C372.642,96.103,373.732,95.028,375.072,95.028z"/>
							</g>
						</g>
					</g>
					<g>
						<path style="fill:#464646;" d="M335.08,93.52h-69.058c-7.79,0-14.104-6.315-14.104-14.104v-7.06h97.267v7.06
							C349.185,87.205,342.87,93.52,335.08,93.52z"/>
						<path id="XMLID_4_" style="fill:#7A7A7A;" d="M284.231,83.854h28.423c2.084,0,3.774-1.694,3.774-3.78
							c0-2.081-1.69-3.775-3.774-3.775h-28.423c-2.083,0-3.775,1.694-3.775,3.775C280.455,82.16,282.147,83.854,284.231,83.854z"/>
					</g>
					<g style="opacity:0.56;">
						<rect x="208.1" y="221.375" style="fill:#C7CBDB;" width="24.431" height="24.567"/>
						<rect x="234.915" y="221.375" style="fill:#C7CBDB;" width="24.431" height="24.567"/>
						<rect x="261.73" y="221.375" style="fill:#C7CBDB;" width="24.431" height="24.567"/>
						<rect x="288.545" y="221.375" style="fill:#C7CBDB;" width="24.431" height="24.567"/>
						<rect x="315.36" y="221.375" style="fill:#C7CBDB;" width="24.431" height="24.567"/>
						<rect x="208.1" y="247.881" style="fill:#C7CBDB;" width="24.431" height="24.567"/>
						<rect x="234.915" y="247.881" style="fill:#C7CBDB;" width="24.431" height="24.567"/>
						<rect x="261.73" y="247.881" style="fill:#C7CBDB;" width="24.431" height="24.567"/>
						<rect x="288.545" y="247.881" style="fill:#C7CBDB;" width="24.431" height="24.567"/>
						<rect x="315.36" y="247.881" style="fill:#C7CBDB;" width="24.431" height="24.567"/>
						<rect x="208.1" y="274.388" style="fill:#C7CBDB;" width="24.431" height="24.567"/>
						<rect x="234.915" y="274.388" style="fill:#C7CBDB;" width="24.431" height="24.567"/>
						<rect x="261.73" y="274.388" style="fill:#C7CBDB;" width="24.431" height="24.567"/>
						<rect x="288.545" y="274.388" style="fill:#C7CBDB;" width="24.431" height="24.567"/>
						<rect x="315.36" y="274.388" style="fill:#C7CBDB;" width="24.431" height="24.567"/>
						<rect x="208.1" y="300.894" style="fill:#C7CBDB;" width="24.431" height="24.567"/>
						<rect x="234.915" y="300.894" style="fill:#C7CBDB;" width="24.431" height="24.567"/>
						<rect x="261.73" y="300.894" style="fill:#C7CBDB;" width="24.431" height="24.567"/>
						<rect x="288.545" y="300.894" style="fill:#C7CBDB;" width="24.431" height="24.567"/>
						<rect x="315.36" y="300.894" style="fill:#C7CBDB;" width="24.431" height="24.567"/>
						<rect x="342.175" y="221.375" style="fill:#C7CBDB;" width="24.431" height="24.567"/>
						<rect x="342.175" y="247.881" style="fill:#C7CBDB;" width="24.431" height="24.567"/>
						<rect x="342.175" y="274.388" style="fill:#C7CBDB;" width="24.431" height="24.567"/>
						<rect x="342.175" y="300.894" style="fill:#C7CBDB;" width="24.431" height="24.567"/>
						<rect x="368.99" y="221.375" style="fill:#C7CBDB;" width="24.431" height="24.567"/>
						<rect x="368.99" y="247.881" style="fill:#C7CBDB;" width="24.431" height="24.567"/>
						<rect x="368.99" y="274.388" style="fill:#88CBE3;" width="24.431" height="24.567"/>
						<rect x="368.99" y="300.894" style="fill:#C7CBDB;" width="24.431" height="24.567"/>
						<rect x="208.1" y="327.298" style="fill:#C7CBDB;" width="24.431" height="24.567"/>
						<rect x="234.915" y="327.298" style="fill:#C7CBDB;" width="24.431" height="24.567"/>
						<rect x="261.73" y="327.298" style="fill:#C7CBDB;" width="24.431" height="24.567"/>
						
							<rect x="288.545" y="327.298" style="fill:none;stroke:#C7CBDB;stroke-width:1.0621;stroke-miterlimit:10;" width="24.431" height="24.567"/>
						
							<rect x="315.36" y="327.298" style="fill:none;stroke:#C7CBDB;stroke-width:1.0621;stroke-miterlimit:10;" width="24.431" height="24.567"/>
						
							<rect x="342.175" y="327.298" style="fill:none;stroke:#C7CBDB;stroke-width:1.0621;stroke-miterlimit:10;" width="24.431" height="24.567"/>
						
							<rect x="368.99" y="327.298" style="fill:none;stroke:#C7CBDB;stroke-width:1.0621;stroke-miterlimit:10;" width="24.431" height="24.567"/>
						<rect x="209.627" y="222.696" style="fill:#7A7A7A;" width="5.327" height="5.327"/>
						<rect x="236.393" y="222.696" style="fill:#7A7A7A;" width="5.327" height="5.327"/>
						<rect x="263.158" y="222.696" style="fill:#7A7A7A;" width="5.327" height="5.327"/>
						<rect x="289.924" y="222.696" style="fill:#7A7A7A;" width="5.327" height="5.327"/>
						<rect x="316.689" y="222.696" style="fill:#7A7A7A;" width="5.327" height="5.327"/>
						<rect x="343.454" y="222.696" style="fill:#7A7A7A;" width="5.327" height="5.327"/>
						<rect x="370.22" y="222.696" style="fill:#7A7A7A;" width="5.327" height="5.327"/>
						<rect x="209.627" y="249.203" style="fill:#7A7A7A;" width="5.327" height="5.327"/>
						<rect x="236.393" y="249.203" style="fill:#7A7A7A;" width="5.327" height="5.327"/>
						<rect x="263.158" y="249.203" style="fill:#7A7A7A;" width="5.327" height="5.327"/>
						<rect x="289.924" y="249.203" style="fill:#7A7A7A;" width="5.327" height="5.327"/>
						<rect x="316.689" y="249.203" style="fill:#7A7A7A;" width="5.327" height="5.327"/>
						<rect x="343.454" y="249.203" style="fill:#7A7A7A;" width="5.327" height="5.327"/>
						<rect x="370.22" y="249.203" style="fill:#7A7A7A;" width="5.327" height="5.327"/>
						<rect x="209.627" y="275.71" style="fill:#7A7A7A;" width="5.327" height="5.327"/>
						<rect x="236.393" y="275.71" style="fill:#7A7A7A;" width="5.327" height="5.327"/>
						<rect x="263.158" y="275.71" style="fill:#7A7A7A;" width="5.327" height="5.327"/>
						<rect x="289.924" y="275.71" style="fill:#7A7A7A;" width="5.327" height="5.327"/>
						<rect x="316.689" y="275.71" style="fill:#7A7A7A;" width="5.327" height="5.327"/>
						<rect x="343.454" y="275.71" style="fill:#7A7A7A;" width="5.327" height="5.327"/>
						<rect x="370.22" y="275.71" style="fill:#7A7A7A;" width="5.327" height="5.327"/>
						<rect x="209.627" y="302.217" style="fill:#7A7A7A;" width="5.327" height="5.327"/>
						<rect x="236.393" y="302.217" style="fill:#7A7A7A;" width="5.327" height="5.327"/>
						<rect x="263.158" y="302.217" style="fill:#7A7A7A;" width="5.327" height="5.327"/>
						<rect x="289.924" y="302.217" style="fill:#7A7A7A;" width="5.327" height="5.327"/>
						<rect x="316.689" y="302.217" style="fill:#7A7A7A;" width="5.327" height="5.327"/>
						<rect x="343.454" y="302.217" style="fill:#7A7A7A;" width="5.327" height="5.327"/>
						<rect x="370.22" y="302.217" style="fill:#7A7A7A;" width="5.327" height="5.327"/>
						<rect x="209.627" y="328.724" style="fill:#7A7A7A;" width="5.327" height="5.327"/>
						<rect x="236.393" y="328.724" style="fill:#7A7A7A;" width="5.327" height="5.327"/>
						<rect x="263.158" y="328.724" style="fill:#7A7A7A;" width="5.327" height="5.327"/>
					</g>
					<g>
						<g>
							<path style="fill:#C7CBDB;" d="M202.822,365.227v19.158c0,5.726,4.642,10.368,10.368,10.368h170.5
								c5.726,0,10.368-4.642,10.368-10.368v-19.158H202.822z"/>
							
								<ellipse transform="matrix(0.2276 -0.9738 0.9738 0.2276 -132.5809 578.6324)" style="fill:#C7CBDB;" cx="298.44" cy="372.886" rx="22.264" ry="22.264"/>
						</g>
						<g>
							<g>
								<path style="fill:#FFFFFF;" d="M305.984,386.383h-15.089c-1.07,0-1.937-0.867-1.937-1.937v-11.56h18.964v11.56
									C307.922,385.516,307.054,386.383,305.984,386.383z"/>
								<path style="fill:#FFFFFF;" d="M310.233,373.835h-23.586c-0.496,0-0.725-0.616-0.351-0.94l11.714-10.145
									c0.247-0.214,0.612-0.214,0.859,0l11.714,10.145C310.958,373.22,310.729,373.835,310.233,373.835z"/>
								<path style="fill:#C7CBDB;" d="M299.947,385.208h-3.015c-0.449,0-0.813-0.364-0.813-0.814v-4.717
									c0-0.449,0.364-0.814,0.813-0.814h3.015c0.449,0,0.813,0.364,0.813,0.814v4.717
									C300.761,384.843,300.397,385.208,299.947,385.208z"/>
							</g>
							<g>
								<path style="fill:#FFFFFF;" d="M355.656,380.638c0,1.787-1.449,3.236-3.236,3.236c-1.787,0-3.236-1.449-3.236-3.236
									c0-1.787,1.449-3.236,3.236-3.236C354.208,377.402,355.656,378.851,355.656,380.638z"/>
								<path style="fill:#FFFFFF;" d="M247.695,380.638c0,1.787-1.449,3.236-3.236,3.236c-1.787,0-3.236-1.449-3.236-3.236
									c0-1.787,1.449-3.236,3.236-3.236C246.246,377.402,247.695,378.851,247.695,380.638z"/>
							</g>
						</g>
					</g>
					<g>
						<path style="fill:#C7CBDB;" d="M339.857,262.589h-93.848c-10.147,0-18.372-8.226-18.372-18.372v-93.848
							c0-10.147,8.226-18.372,18.372-18.372h93.848c10.147,0,18.372,8.226,18.372,18.372v93.848
							C358.229,254.364,350.004,262.589,339.857,262.589z"/>
						<g>
							<path style="fill:#FFFFFF;stroke:#88CBE3;stroke-width:2.1243;stroke-miterlimit:10;" d="M343.043,259.403h-93.848
								c-10.147,0-18.373-8.226-18.373-18.373v-93.848c0-10.147,8.226-18.373,18.373-18.373h93.848
								c10.147,0,18.372,8.226,18.372,18.373v93.848C361.416,251.177,353.19,259.403,343.043,259.403z"/>
							<path style="fill:#88CBE3;" d="M361.416,182.229v-35.047c0-10.147-8.226-18.373-18.373-18.373h-93.848
								c-10.147,0-18.373,8.226-18.373,18.373v35.047H361.416z"/>
							<g>
								
									<text transform="matrix(1 0 0 1 236.6834 173.7323)" style="fill:#FFFFFF; font-family:'Montserrat-Bold'; font-size:51.2919px;">20</text>
								<g>
									
										<text transform="matrix(1 0 0 1 305.1146 155.9832)" style="fill:#FFFFFF; font-family:'Montserrat-Bold'; font-size:24.9473px;">th</text>
									
										<text transform="matrix(1 0 0 1 304.974 174.0897)" style="fill:#FFFFFF; font-family:'Montserrat-Bold'; font-size:12.6773px;">MONTH</text>
								</g>
							</g>
							<g>
								
									<text transform="matrix(1 0 0 1 263.9603 212.099)" style="fill:#88CBE3; font-family:'Montserrat-Bold'; font-size:17.7806px;">6:00</text>
								
									<text transform="matrix(1 0 0 1 305.8216 212.099)" style="fill:#88CBE3; font-family:'Montserrat-Bold'; font-size:10.1721px;">PM</text>
							</g>
							<g>
								
									<text transform="matrix(1 0 0 1 263.9593 239.3021)" style="fill:#88CBE3; font-family:'Montserrat-Bold'; font-size:10.7544px;">CENTRAL PARK</text>
							</g>
							<path style="fill:#88CBE3;" d="M255.175,230.535c0-3.707-3.197-6.667-6.984-6.273c-2.847,0.296-5.181,2.557-5.572,5.393
								c-0.206,1.499,0.125,2.905,0.814,4.075h-0.001l4.857,9.211c0.245,0.465,0.911,0.465,1.156,0l4.856-9.211H254.3
								C254.853,232.791,255.175,231.702,255.175,230.535z M248.867,233.046c-1.387,0-2.512-1.124-2.512-2.511
								c0-1.387,1.124-2.511,2.512-2.511c1.387,0,2.511,1.124,2.511,2.511C251.378,231.922,250.254,233.046,248.867,233.046z"/>
							<g>
								<circle style="fill:none;stroke:#88CBE3;stroke-width:2.1243;stroke-miterlimit:10;" cx="248.867" cy="204.846" r="8.045"/>
								<polyline style="fill:none;stroke:#88CBE3;stroke-width:2.1243;stroke-miterlimit:10;" points="248.867,200.573 
									248.867,204.846 251.123,207.102 								"/>
							</g>
						</g>
						<path style="fill:#88CBE3;" d="M372.883,278.374l-13.202-29.545c0,0-3.006,6.119-14.47,10.446L372.883,278.374z"/>
					</g>
				</g>
			</g>
		</g>
	</g>
</g>
</svg>
